<svg xmlns="http://www.w3.org/2000/svg" width="20" height="20" viewBox="0 0 20 20"><path d="M5.833,20A5.85,5.85,0,0,1,0,14.167V5.833A5.851,5.851,0,0,1,5.833,0h8.334A5.85,5.85,0,0,1,20,5.833v8.334A5.85,5.85,0,0,1,14.167,20ZM2.891,2.891A4.158,4.158,0,0,0,1.667,5.833v8.334a4.179,4.179,0,0,0,4.166,4.166h8.334a4.179,4.179,0,0,0,4.166-4.166V5.833a4.179,4.179,0,0,0-4.166-4.166H5.833A4.128,4.128,0,0,0,2.891,2.891ZM5,10a5,5,0,1,1,5,5A5,5,0,0,1,5,10Zm1.666,0A3.334,3.334,0,1,0,10,6.666,3.337,3.337,0,0,0,6.666,10Zm7.5-5.416a1.25,1.25,0,1,1,1.25,1.25A1.247,1.247,0,0,1,14.166,4.584Z" fill="#fff"/></svg>