<svg width="96" height="48" viewBox="0 0 96 48" fill="none" xmlns="http://www.w3.org/2000/svg"><path d="M0 23.8521H9.73461V24.8698C6.89466 25.1161 6.45144 25.3787 6.45144 28.6127V34.8835C7.47122 34.6109 8.38602 34.0391 9.07797 33.2419C11.1135 31.3049 13.5595 28.8425 15.2339 26.9382C16.3338 25.707 16.2189 25.2966 14.6594 25.0176L13.6252 24.9027V23.8849H22.4897V24.9027C21.2973 24.898 20.1197 25.1663 19.047 25.687C17.9742 26.2077 17.0349 26.967 16.301 27.9068C15.2011 28.9574 12.3611 31.7317 10.0301 34.0299C12.8044 37.3131 16.8427 41.9588 18.7469 43.9615C20.6512 45.9642 21.078 46.2597 23.3434 46.5224V47.6058H17.4993C14.7743 44.3226 11.7373 40.8261 8.42134 36.9519C8.21127 36.6067 7.91018 36.3261 7.5511 36.1407C7.19202 35.9554 6.78883 35.8726 6.38577 35.9013V42.8124C6.38577 45.9971 6.71409 46.2433 9.66895 46.5059V47.6058H0V46.588C2.98769 46.3254 3.28317 46.0791 3.28317 42.8945V28.6127C3.28317 25.3295 3.02052 25.0832 0 24.8698V23.8521Z" fill="white"/><path d="M34.1778 47.9999C33.6361 47.9827 33.1181 47.7732 32.7168 47.4089C32.3371 47.0189 32.0753 46.5295 31.9616 45.9972C30.8679 46.9283 29.5854 47.6116 28.2024 47.9999C27.1865 47.9956 26.2136 47.5889 25.4968 46.869C24.78 46.1491 24.3775 45.1745 24.3775 44.1586C24.3792 43.4206 24.6371 42.7061 25.1072 42.1372C25.5773 41.5683 26.2304 41.1803 26.9548 41.0396C28.6668 40.5457 30.3185 39.863 31.8796 39.004V38.3802C31.8796 36.1641 30.7469 34.8836 29.1217 34.8836C28.8377 34.8784 28.5565 34.9403 28.3009 35.0642C28.0468 35.1973 27.8232 35.3818 27.6443 35.6059C27.2596 36.2302 26.977 36.9118 26.8071 37.6251C26.7712 37.8352 26.6594 38.0248 26.493 38.1579C26.3265 38.291 26.117 38.3585 25.9042 38.3474C25.5499 38.3213 25.2164 38.1699 24.9637 37.9202C24.711 37.6705 24.5555 37.3389 24.5253 36.9849C24.5253 36.5416 24.9192 36.1641 25.5595 35.7208C26.9051 34.7117 28.4321 33.9705 30.0574 33.5375C30.6398 33.5139 31.2205 33.6151 31.7605 33.8344C32.3006 34.0536 32.7875 34.3858 33.1886 34.8087C33.5897 35.2316 33.8957 35.7354 34.0862 36.2862C34.2766 36.8371 34.347 37.4223 34.2927 38.0026V44.0437C34.2927 45.4883 34.818 45.9151 35.3926 45.9151C35.7883 45.899 36.173 45.7802 36.5088 45.5704L36.8207 46.4568L34.1778 47.9999ZM31.896 40.0875C31.2065 40.4322 29.6963 41.0888 28.9904 41.4007C27.792 41.926 27.0697 42.5334 27.0697 43.6825C27.0519 43.9917 27.0972 44.3012 27.2028 44.5923C27.3084 44.8834 27.4722 45.1499 27.6841 45.3757C27.8961 45.6014 28.1517 45.7817 28.4356 45.9055C28.7194 46.0292 29.0255 46.094 29.3351 46.0957C30.2935 46.0233 31.1977 45.6233 31.896 44.963V40.0875Z" fill="white"/><path d="M46.8837 47.6061V46.7361C48.6895 46.5555 48.8864 46.3257 48.8864 44.2081V38.9878C48.8864 36.7881 48.0985 35.3271 46.0301 35.3271C44.7094 35.4344 43.4727 36.0178 42.5499 36.9687V44.323C42.5499 46.4899 42.7469 46.5555 44.5855 46.7361V47.6061H37.7565V46.7361C39.8249 46.5227 40.0219 46.3914 40.0219 44.323V37.7566C40.0219 35.7211 39.7921 35.6226 38.1012 35.3435V34.5391C39.6084 34.3069 41.0807 33.8879 42.4843 33.2915V35.7539L44.6183 34.3093C45.3735 33.7518 46.2749 33.4266 47.212 33.3736C49.7237 33.3736 51.2832 35.2286 51.2832 38.2983V44.323C51.2832 46.457 51.4802 46.5555 53.3023 46.7361V47.6061H46.8837Z" fill="white"/><path d="M64.5144 48C63.9669 47.9867 63.4425 47.7769 63.0369 47.409C62.6868 46.9987 62.4592 46.4981 62.3803 45.9644C61.2845 46.8926 60.0027 47.5755 58.6211 47.9672C57.6051 47.9628 56.6323 47.5562 55.9155 46.8363C55.1986 46.1164 54.7962 45.1418 54.7962 44.1259C54.7976 43.4064 55.0438 42.7089 55.4943 42.148C55.9448 41.5871 56.5728 41.1962 57.275 41.0397C58.9874 40.5471 60.6393 39.8643 62.1997 39.0041V38.3803C62.1997 36.1642 61.067 34.8837 59.4419 34.8837C59.1572 34.8717 58.8744 34.9339 58.6211 35.0643C58.3641 35.193 58.1396 35.3782 57.9644 35.606C57.5728 36.2267 57.2897 36.9095 57.1272 37.6252C57.0877 37.8366 56.9727 38.0265 56.8035 38.1594C56.6344 38.2923 56.4227 38.3591 56.2079 38.3475C55.8547 38.3183 55.5231 38.1657 55.271 37.9167C55.0189 37.6676 54.8625 37.3378 54.829 36.985C54.829 36.5417 55.2394 36.1642 55.8632 35.7209C57.2159 34.7134 58.7479 33.9725 60.3776 33.5376C61.3214 33.5197 62.2447 33.814 63.0041 34.3748C63.5478 34.8043 63.9806 35.3579 64.2662 35.9891C64.5519 36.6203 64.682 37.3109 64.6457 38.0028V44.0438C64.6457 45.4884 65.1874 45.9152 65.7455 45.9152C66.1467 45.9012 66.5373 45.7823 66.8782 45.5705L67.1901 46.4569L64.5144 48ZM62.2326 40.0876C61.5431 40.4323 60.0328 41.0889 59.3105 41.4008C58.1286 41.9261 57.4063 42.5335 57.4063 43.6826C57.3885 43.9904 57.4333 44.2986 57.5379 44.5886C57.6426 44.8786 57.8049 45.1443 58.015 45.3699C58.2252 45.5954 58.4789 45.776 58.7608 45.9007C59.0427 46.0255 59.347 46.0919 59.6553 46.0958C60.6194 46.0271 61.53 45.6269 62.2326 44.9631V40.0876Z" fill="white"/><path d="M75.513 47.6059H68.2408V46.7359C70.2107 46.5553 70.4077 46.3911 70.4077 44.3556V37.7564C70.4077 35.688 70.2763 35.6059 68.4542 35.3761V34.6374C69.975 34.4019 71.4592 33.9715 72.87 33.3569V36.7878C73.9699 35.1463 75.2832 33.5047 76.8591 33.5047C77.0774 33.4821 77.298 33.5036 77.5079 33.5677C77.7178 33.6319 77.9127 33.7375 78.081 33.8783C78.2494 34.0191 78.3878 34.1923 78.4881 34.3875C78.5883 34.5827 78.6485 34.7961 78.6648 35.0149C78.6468 35.3689 78.5395 35.7126 78.3529 36.014C78.1664 36.3153 77.9066 36.5646 77.5978 36.7386C77.4794 36.8252 77.3336 36.866 77.1874 36.8535C77.0398 36.8384 76.9013 36.7749 76.7934 36.6729C76.6265 36.45 76.4146 36.2646 76.1714 36.1288C75.9281 35.9931 75.6591 35.91 75.3817 35.885C74.725 35.885 73.5595 36.8535 72.87 38.4459V44.3227C72.87 46.3911 73.0342 46.5553 75.4473 46.7359L75.513 47.6059Z" fill="white"/><path d="M95.0971 46.6702C93.4769 46.9241 91.8755 47.2861 90.3036 47.7536V45.3569C89.0409 46.6994 87.3418 47.5489 85.5102 47.7536C83.409 47.7536 81.6032 46.4732 81.6032 43.0751V37.0012C81.6032 35.3596 81.3406 35.1298 80.569 34.9656L79.6826 34.8179V33.9971C81.0287 33.9971 83.0971 33.6195 84.1641 33.439C84.0656 34.4403 84.0656 35.9342 84.0656 38.0026V42.2543C84.0656 45.0121 85.5102 45.7837 86.922 45.7837C88.19 45.7483 89.3955 45.2249 90.2872 44.3227V37.0012C90.2872 35.3596 89.9097 35.097 88.8426 34.9328L87.8413 34.8179V33.9971C89.4919 33.9022 91.136 33.7158 92.766 33.439V43.9123C92.766 45.4718 93.0123 45.7016 94.2106 45.7509H95.0807L95.0971 46.6702Z" fill="white"/><path d="M3.48016 10.9986L0 23.7702L35.0479 12.3283L38.528 0L3.48016 10.9986Z" fill="white"/></svg>