<svg width="64" height="32" viewBox="0 0 64 32" fill="none" xmlns="http://www.w3.org/2000/svg"><path d="M0 15.9015H6.48974V16.58C4.59644 16.7442 4.30096 16.9193 4.30096 19.0752V23.2558C4.98081 23.074 5.59068 22.6929 6.05198 22.1614C7.40903 20.87 9.03967 19.2284 10.1559 17.9589C10.8892 17.1382 10.8126 16.8646 9.77291 16.6785L9.08345 16.6019V15.9234H14.9932V16.6019C14.1982 16.5988 13.4131 16.7777 12.698 17.1248C11.9828 17.4719 11.3566 17.9781 10.8673 18.6046C10.1341 19.305 8.24077 21.1546 6.68673 22.6867C8.53625 24.8755 11.2285 27.9726 12.4979 29.3078C13.7674 30.6429 14.052 30.8399 15.5622 31.015V31.7373H11.6662C9.84952 29.5485 7.8249 27.2175 5.61423 24.6347C5.47418 24.4046 5.27345 24.2175 5.03407 24.0939C4.79468 23.9704 4.52589 23.9152 4.25718 23.9343V28.5417C4.25718 30.6648 4.47606 30.829 6.44596 31.0041V31.7373H0V31.0588C1.99179 30.8837 2.18878 30.7195 2.18878 28.5964V19.0752C2.18878 16.8864 2.01368 16.7223 0 16.58V15.9015Z" fill="black"/><path d="M22.7852 32C22.4241 31.9885 22.0788 31.8488 21.8112 31.606C21.5581 31.346 21.3836 31.0197 21.3078 30.6648C20.5786 31.2856 19.7236 31.7411 18.8016 32C18.1244 31.9971 17.4758 31.726 16.9979 31.2461C16.52 30.7661 16.2517 30.1164 16.2517 29.4391C16.2528 28.9471 16.4248 28.4708 16.7382 28.0915C17.0516 27.7123 17.4869 27.4536 17.9699 27.3598C19.1112 27.0305 20.2124 26.5754 21.2531 26.0027V25.5869C21.2531 24.1094 20.4979 23.2558 19.4145 23.2558C19.2252 23.2523 19.0377 23.2936 18.8673 23.3762C18.6979 23.4649 18.5488 23.5879 18.4295 23.7373C18.1731 24.1535 17.9847 24.6079 17.8714 25.0834C17.8475 25.2235 17.773 25.3499 17.662 25.4387C17.5511 25.5274 17.4114 25.5724 17.2695 25.565C17.0333 25.5476 16.811 25.4466 16.6425 25.2802C16.474 25.1137 16.3704 24.8926 16.3502 24.6566C16.3502 24.3611 16.6129 24.1094 17.0397 23.8139C17.9368 23.1412 18.9548 22.6471 20.0383 22.3584C20.4266 22.3427 20.8137 22.4101 21.1737 22.5563C21.5337 22.7025 21.8583 22.9239 22.1258 23.2059C22.3932 23.4878 22.5972 23.8236 22.7241 24.1909C22.8511 24.5581 22.898 24.9483 22.8618 25.3351V29.3625C22.8618 30.3256 23.212 30.6101 23.5951 30.6101C23.8589 30.5994 24.1153 30.5202 24.3393 30.3803L24.5472 30.9713L22.7852 32ZM21.264 26.725C20.8044 26.9548 19.7975 27.3926 19.3269 27.6005C18.528 27.9507 18.0465 28.3557 18.0465 29.1217C18.0346 29.3278 18.0648 29.5342 18.1352 29.7282C18.2057 29.9223 18.3148 30.1 18.4561 30.2505C18.5974 30.401 18.7679 30.5212 18.9571 30.6037C19.1463 30.6862 19.3503 30.7294 19.5568 30.7305C20.1957 30.6822 20.7985 30.4156 21.264 29.9754V26.725Z" fill="black"/><path d="M31.2558 31.7373V31.1573C32.4597 31.0369 32.591 30.8837 32.591 29.4719V25.9918C32.591 24.5253 32.0657 23.5513 30.6868 23.5513C29.8063 23.6228 28.9818 24.0118 28.3666 24.6457V29.5486C28.3666 30.9931 28.498 31.0369 29.7237 31.1573V31.7373H25.171V31.1573C26.55 31.015 26.6813 30.9275 26.6813 29.5486V25.171C26.6813 23.8139 26.5281 23.7483 25.4008 23.5622V23.026C26.4056 22.8712 27.3872 22.5918 28.3229 22.1942V23.8358L29.7456 22.8728C30.249 22.5011 30.8499 22.2843 31.4747 22.249C33.1491 22.249 34.1888 23.4856 34.1888 25.5321V29.5486C34.1888 30.9713 34.3201 31.0369 35.5349 31.1573V31.7373H31.2558Z" fill="black"/><path d="M43.0096 32C42.6446 31.9911 42.295 31.8513 42.0246 31.606C41.7912 31.3325 41.6395 30.9987 41.5868 30.643C40.8563 31.2617 40.0018 31.717 39.0807 31.9781C38.4034 31.9752 37.7548 31.7041 37.277 31.2242C36.7991 30.7443 36.5308 30.0945 36.5308 29.4172C36.5317 28.9376 36.6958 28.4726 36.9962 28.0987C37.2965 27.7247 37.7152 27.4642 38.1833 27.3598C39.3249 27.0314 40.4262 26.5762 41.4665 26.0027V25.5869C41.4665 24.1094 40.7113 23.2558 39.6279 23.2558C39.4381 23.2478 39.2496 23.2893 39.0807 23.3762C38.9094 23.462 38.7597 23.5855 38.6429 23.7374C38.3819 24.1511 38.1931 24.6063 38.0848 25.0835C38.0584 25.2244 37.9818 25.351 37.869 25.4396C37.7562 25.5282 37.6151 25.5727 37.4719 25.565C37.2365 25.5455 37.0154 25.4438 36.8473 25.2778C36.6793 25.1117 36.575 24.8918 36.5527 24.6566C36.5527 24.3612 36.8262 24.1094 37.2421 23.814C38.1439 23.1423 39.1653 22.6483 40.2517 22.3584C40.8809 22.3465 41.4965 22.5427 42.0027 22.9166C42.3652 23.2029 42.6537 23.5719 42.8441 23.9927C43.0346 24.4136 43.1213 24.8739 43.0971 25.3352V29.3625C43.0971 30.3256 43.4583 30.6101 43.8303 30.6101C44.0978 30.6008 44.3582 30.5216 44.5855 30.3803L44.7934 30.9713L43.0096 32ZM41.4884 26.725C41.0287 26.9549 40.0219 27.3926 39.5403 27.6006C38.7524 27.9508 38.2708 28.3557 38.2708 29.1218C38.259 29.3269 38.2888 29.5324 38.3586 29.7257C38.4284 29.919 38.5366 30.0962 38.6767 30.2466C38.8168 30.3969 38.9859 30.5173 39.1739 30.6005C39.3618 30.6837 39.5647 30.7279 39.7702 30.7305C40.4129 30.6847 41.02 30.4179 41.4884 29.9754V26.725Z" fill="black"/><path d="M50.342 31.7374H45.4938V31.1573C46.8071 31.0369 46.9384 30.9275 46.9384 29.5705V25.171C46.9384 23.7921 46.8509 23.7374 45.6361 23.5841V23.0917C46.65 22.9347 47.6394 22.6478 48.58 22.238V24.5253C49.3133 23.4309 50.1888 22.3365 51.2394 22.3365C51.3849 22.3215 51.532 22.3358 51.6719 22.3786C51.8118 22.4214 51.9418 22.4918 52.054 22.5856C52.1662 22.6795 52.2585 22.7949 52.3254 22.9251C52.3922 23.0552 52.4323 23.1975 52.4432 23.3434C52.4312 23.5794 52.3597 23.8085 52.2353 24.0094C52.1109 24.2103 51.9377 24.3765 51.7319 24.4925C51.6529 24.5502 51.5557 24.5774 51.4583 24.5691C51.3598 24.559 51.2675 24.5167 51.1956 24.4487C51.0843 24.3001 50.943 24.1765 50.7809 24.086C50.6187 23.9955 50.4394 23.9401 50.2544 23.9234C49.8167 23.9234 49.0397 24.5691 48.58 25.6307V29.5486C48.58 30.9275 48.6895 31.0369 50.2982 31.1573L50.342 31.7374Z" fill="black"/><path d="M63.398 31.1135C62.3179 31.2828 61.2503 31.5242 60.2024 31.8358V30.238C59.3606 31.133 58.2279 31.6994 57.0068 31.8358C55.606 31.8358 54.4021 30.9822 54.4021 28.7168V24.6676C54.4021 23.5732 54.227 23.42 53.7127 23.3105L53.1217 23.212V22.6648C54.0191 22.6648 55.398 22.4131 56.1094 22.2928C56.0437 22.9603 56.0437 23.9562 56.0437 25.3352V28.1696C56.0437 30.0082 57.0068 30.5226 57.948 30.5226C58.7933 30.499 59.597 30.1501 60.1915 29.5486V24.6676C60.1915 23.5732 59.9398 23.3981 59.2284 23.2887L58.5608 23.212V22.6648C59.6612 22.6016 60.7573 22.4773 61.844 22.2928V29.275C61.844 30.3146 62.0082 30.4679 62.8071 30.5007H63.3871L63.398 31.1135Z" fill="black"/><path d="M2.32011 7.33242L0 15.8468L23.3652 8.21888L25.6854 0L2.32011 7.33242Z" fill="#232C93"/></svg>